<svg width="1024" height="1024" xmlns="http://www.w3.org/2000/svg" p-id="10097" version="1.1" class="icon" t="1696841498510">

    <g>
        <title>Layer 1</title>
        <path stroke="null" id="svg_1" p-id="10098" fill="#231815" d="m511.53386,1023.86016c-281.56372,0 -510.61439,-229.51137 -510.61439,-511.61431s229.05066,-511.61553 510.61439,-511.61553s510.61439,229.51137 510.61439,511.61431s-229.05068,511.61553 -510.61439,511.61553zm0,-951.55153c-242.11554,0 -439.07739,197.3585 -439.07739,439.93722s196.96185,439.93721 439.07739,439.93721s439.07738,-197.3585 439.07738,-439.93721s-196.96185,-439.93722 -439.07738,-439.93722z"/>
        <path stroke="null" id="svg_2" p-id="10099" fill="#231815" d="m504.03677,788.24863c-35.6754,0 -66.46324,-21.09517 -78.40449,-53.75362l-7.0038,-19.10081c-0.73123,-1.97014 -2.16612,-2.89974 -3.27544,-3.34095c-1.08306,-0.42847 -2.72143,-0.78296 -4.73659,0.12241l-18.82033,8.7005c-32.19778,14.85449 -69.36059,8.66352 -94.60446,-15.85804c-25.21893,-24.50882 -31.61884,-60.55667 -16.30106,-91.85578l8.96905,-18.31786c0.90715,-1.87195 0.55401,-3.53606 0.10109,-4.60082c-0.65509,-1.52893 -1.78935,-2.59369 -3.40148,-3.14457l-19.70254,-6.8158c-33.60905,-11.60025 -55.32673,-41.49284 -55.32673,-76.15713c0,-34.66428 21.71768,-64.55816 55.35168,-76.16988l19.67627,-6.79157c1.58718,-0.55086 2.74639,-1.61563 3.40148,-3.15732c0.45292,-1.06477 0.80606,-2.72888 -0.12603,-4.62505l-8.94411,-18.29235c-15.31778,-31.30038 -8.91919,-67.34696 16.30106,-91.85578c25.21893,-24.50881 62.30559,-30.78649 94.57952,-15.8708l18.87021,8.72473c1.88913,0.86839 3.62859,0.56235 4.71165,0.10967c1.108,-0.43993 2.54421,-1.37082 3.27544,-3.3282l7.0038,-19.12504c12.01738,-32.84207 44.92146,-53.80207 82.56212,-52.481c35.6242,1.40652 65.37887,22.89318 74.67613,53.65544l6.57583,17.93784c1.23404,3.36519 3.90559,5.17593 4.83767,5.35956l3.14942,-2.14101l18.87021,-8.71198c32.22404,-14.83026 69.33433,-8.63929 94.55458,15.84529c25.22024,24.49607 31.64378,60.55667 16.35095,91.85578l-8.99401,18.34209c-0.90715,1.88471 -0.57895,3.53606 -0.12603,4.58808c0.45292,1.06477 1.41126,2.47128 3.45135,3.18154l19.65133,6.77882c33.634,11.62447 55.32674,41.51706 55.32674,76.16988c0,34.65282 -21.69275,64.54541 -55.3018,76.15713l-19.67627,6.80303c-2.04141,0.71028 -2.99844,2.10404 -3.45135,3.16881c-0.45292,1.05202 -0.78112,2.70464 0.12603,4.5766l8.96905,18.32933c15.31778,31.32462 8.89424,67.38394 -16.326,91.88128c-25.21893,24.4846 -62.33054,30.72529 -94.55458,15.8453l-18.87021,-8.71198c-1.96527,-0.9296 -3.67848,-0.58785 -4.73659,-0.12242c-1.58718,0.63631 -2.67025,1.73806 -3.22424,3.30398l-7.02875,19.14927c-11.94386,32.64824 -42.73039,53.74342 -78.40578,53.74342zm-90.90105,-151.78889c10.83324,0 21.66648,2.04283 31.84595,6.14251c21.71768,8.73621 38.69878,26.08747 46.55852,47.59837l7.0038,19.10081c0.45292,1.22417 1.38632,3.76814 5.49277,3.76814c4.10644,0 5.03854,-2.54525 5.49276,-3.75666l7.0038,-19.12503c7.8348,-21.47391 24.79095,-38.82519 46.50864,-47.57414c21.6678,-8.77319 46.35767,-8.1611 67.59618,1.65135l18.87023,8.71198c1.18414,0.53812 3.70341,1.71256 6.6257,-1.10175c2.9223,-2.83853 1.71321,-5.28558 1.13427,-6.4613l-8.94413,-18.29235c-10.10332,-20.61827 -10.73215,-44.55198 -1.73814,-65.64716c8.99401,-21.09517 26.88225,-37.57678 49.02791,-45.22526l19.65133,-6.79157c1.26029,-0.43993 3.85439,-1.33383 3.85439,-5.33533s-2.59541,-4.89411 -3.85439,-5.33532l-19.65133,-6.77882c-22.1706,-7.65996 -40.0339,-24.15431 -49.02791,-45.2495c-8.99401,-21.09517 -8.36518,-45.01613 1.73814,-65.64715l8.96907,-18.3051c0.55401,-1.1502 1.76309,-3.59727 -1.15921,-6.4358c-2.89735,-2.8143 -5.39168,-1.63987 -6.6257,-1.10174l-17.15701,7.91627c-19.34939,10.97541 -42.37726,13.17891 -63.59083,6.02009c-23.95995,-8.08842 -43.48527,-27.22494 -52.25347,-51.18415l-7.609,-20.83759c-1.43621,-0.68477 -4.53442,-1.22417 -7.48298,-0.42847c-2.29215,0.62356 -2.5954,1.41927 -2.87241,2.178l-7.0038,19.12504c-7.86106,21.49941 -24.84215,38.8494 -46.55852,47.5856c-21.69275,8.71198 -46.35767,8.12413 -67.57125,-1.66409l-18.87021,-8.72473c-1.20908,-0.56235 -3.72836,-1.68833 -6.60076,1.12598c-2.9223,2.8143 -1.71321,5.24988 -1.15921,6.42431l8.96907,18.31786c10.10332,20.65397 10.70721,44.58896 1.7132,65.67139c-8.99401,21.08243 -26.85731,37.5653 -48.97803,45.19976l-19.70254,6.80305c-1.23402,0.42846 -3.85438,1.33383 -3.85438,5.32257c0,3.98874 2.62035,4.89411 3.85438,5.32257l19.70254,6.8158c22.12072,7.62299 39.98402,24.09311 48.97803,45.17554c8.99401,21.09517 8.39012,45.02889 -1.68826,65.65864l-8.99401,18.34207c-0.55401,1.17444 -1.76309,3.61001 1.15921,6.42432c2.87241,2.81431 5.41662,1.67685 6.6257,1.11322l18.82033,-8.70049c11.28748,-5.19251 23.50703,-7.81171 35.75154,-7.81171z"/>
    </g>
</svg>
