<svg t="1700761104133" class="icon" viewBox="0 0 1024 1024" version="1.1" xmlns="http://www.w3.org/2000/svg" p-id="12092" width="200" height="200"><path d="M121.206784 499.449856c13.21984 0 112.35328-20.148224 137.957376-32.538624 52.872192-92.5184-14.036992-195.786752 12.402688-298.220544C297.992192 53.033984 545.828864 49.734656 641.657856 46.42304c56.17664 0 145.39776-3.304448 185.049088 46.262272 39.653376 52.872192 26.433536 135.489536 29.744128 194.970624 9.908224 135.469056 9.908224 270.957568 3.298304 406.44608 0 56.163328 9.914368 138.761216-9.908224 191.639552-26.438656 62.780416-112.35328 69.402624-171.829248 66.084864-69.39648-3.304448-138.785792-9.914368-208.183296-9.914368-82.615296 0-128.872448 9.914368-148.69504-75.986944-16.530432-79.305728-16.530432-158.610432-19.83488-237.92128-3.305472-36.354048 3.304448-62.793728-23.134208-82.61632-13.21472-6.597632-153.653248-45.937664-156.957696-45.937664z"  p-id="12093"></path><path d="M119.974912 505.014272c33.425408-2.220032 67.547136-11.867136 99.861504-20.001792 43.353088-10.909696 53.89312-18.482176 65.850368-63.807488 29.724672-112.736256-72.753152-261.221376 66.837504-326.744064 83.885056-39.378944 187.505664-39.168 278.377472-42.12736 53.950464-1.76128 112.078848-2.520064 161.238016 22.4512 67.432448 34.262016 53.668864 139.902976 54.23104 200.916992 0.70144 75.291648 7.918592 150.532096 8.377344 225.977344 0.453632 74.169344-6.112256 148.523008-4.0192 222.583808 1.818624 64.157696 17.430528 157.79328-43.47392 200.41216-57.370624 40.131584-155.746304 19.905536-220.2112 15.873024-60.45696-3.776512-120.889344-1.619968-181.25824-4.657152-75.56608-3.802112-79.522816-87.267328-86.21568-145.760256-7.821312-68.350976-6.756352-137.587712-10.858496-206.224384-2.188288-36.558848-26.8544-45.407232-56.361984-54.486016-40.896512-12.581888-83.172352-27.645952-125.331456-35.365888-6.393856-1.166336-22.656 8.779776-11.618304 10.802176 26.827776 4.89984 53.440512 14.381056 79.611904 21.883904 47.1808 13.519872 91.797504 16.370688 95.305728 75.024384 4.231168 70.679552 4.128768 141.389824 12.192768 211.81952 4.99712 43.67872 10.432512 96.92672 50.875392 122.56256 27.389952 17.353728 69.715968 11.853824 100.03456 11.53536 77.372416-0.892928 154.456064 6.929408 231.681024 10.297344 76.778496 3.355648 162.208768-15.427584 181.51424-99.657728 13.672448-59.67872 0.823296-124.32896 3.631104-184.704 3.610624-77.850624 4.375552-155.789312 2.972672-233.69728-1.339392-74.62912-7.688192-148.918272-7.560192-223.566848 0.089088-51.76832-4.881408-108.507136-47.111168-143.706112-58.32704-48.610304-164.358144-32.768-234.502144-29.616128C500.66432 46.761984 412.394496 54.32832 335.872 90.248192c-74.558464 35.001344-85.028864 101.042176-77.71648 177.93536 4.434944 46.664704 40.711168 181.603328-21.456896 201.2672-36.03456 11.395072-76.478464 21.921792-114.254848 24.429568-9.66656 0.64512-15.70816 12.020736-2.468864 11.133952z" fill="#231815" p-id="12094"></path><path d="M380.731392 353.262592a240.3328 240.3328 0 0 1 2.896896-37.246976 2925.584384 2925.584384 0 0 1 6.028288-36.946944c-0.504832-0.695296-1.040384-1.219584-1.646592-1.562624a77.817856 77.817856 0 0 0-1.71008-0.970752 5.000192 5.000192 0 0 1-1.40288-1.11616c-0.39424-0.446464-0.600064-1.212416-0.600064-2.296832 0-1.29536 0.249856-2.762752 0.74752-4.396032a16.55296 16.55296 0 0 1 2.07872-4.45952 13.933568 13.933568 0 0 1 3.196928-3.419136c1.236992-0.937984 2.603008-1.410048 4.094976-1.410048 0.38912 0 0.88064 0.024576 1.480704 0.075776 0.600064 0.0512 1.117184 0.165888 1.557504 0.36352 0.451584 0.2048 0.796672 0.574464 1.045504 1.123328 0.242688 0.54272 0.274432 1.256448 0.0768 2.15552v2.527232c0 1.19296 0.026624 2.429952 0.070656 3.719168 0.044032 1.283072 0.075776 2.520064 0.075776 3.720192v2.374656c0 6.744064-0.350208 13.385728-1.040384 19.924992a661.005312 661.005312 0 0 1-2.38592 19.623936 671.320064 671.320064 0 0 0-2.372608 19.707904 189.108224 189.108224 0 0 0-1.040384 19.843072c0.790528 0 1.410048 0.08192 1.850368 0.228352 0.453632 0.147456 0.823296 0.249856 1.11616 0.293888a1.000448 1.000448 0 0 0 0.823296-0.217088c0.249856-0.197632 0.625664-0.695296 1.117184-1.486848l37.17632-58.440704c0.886784-1.385472 1.63328-2.354176 2.226176-2.896896 0.592896-0.548864 1.58208-0.817152 2.972672-0.817152 1.283072 0 2.310144 0.268288 3.044352 0.817152 0.75264 0.54272 1.518592 1.511424 2.30912 2.896896v1.485824c0 0.594944 0.026624 1.289216 0.0768 2.086912 0.0512 0.791552 0.069632 1.538048 0.069632 2.226176v1.340416c0 4.165632-0.344064 8.133632-1.038336 11.891712-0.69632 3.770368-1.040384 7.790592-1.040384 12.046336 0 2.978816 0.197632 6.418432 0.592896 10.335232a47.413248 47.413248 0 0 0 2.532352 11.29984c1.289216 3.622912 3.100672 6.79424 5.424128 9.525248 2.328576 2.717696 5.435392 4.38272 9.295872 4.975616 0.1024 0 0.592896-0.2304 1.491968-0.668672a30.7712 30.7712 0 0 0 2.079744-1.123328c4.453376-2.673664 8.077312-5.9648 10.846208-9.875456a52.414464 52.414464 0 0 0 6.622208-12.791808c1.63328-4.614144 2.82112-9.468928 3.57376-14.573568a200.9088 200.9088 0 0 0 1.627136-15.388672c0.350208-5.16096 0.61952-10.1888 0.817152-15.095808 0.203776-4.913152 0.600064-9.442304 1.19296-13.601792 0.203776-1.097728 0.847872-1.690624 1.932288-1.785856 1.09056-0.1024 1.933312-0.152576 2.527232-0.152576 2.584576 0 4.217856 0.874496 4.913152 2.603008 0.689152 1.73568 1.135616 3.8912 1.333248 6.469632 0 0.796672 0.032768 2.182144 0.0768 4.160512 0.044032 1.983488 0.08192 4.1216 0.08192 6.398976 0 2.28352-0.037888 4.40832-0.08192 6.393856-0.044032 1.983488-0.0768 3.375104-0.0768 4.165632a263.025664 263.025664 0 0 1-1.040384 10.921984c-0.39424 3.426304-0.790528 6.4-1.186816 8.926208-0.396288 2.527232-0.772096 4.562944-1.11616 6.098944-0.351232 1.538048-0.56832 2.354176-0.67072 2.456576-1.881088 2.476032-3.866624 5.69856-5.946368 9.660416a122.69568 122.69568 0 0 1-6.985728 11.669504c-2.584576 3.820544-5.430272 7.113728-8.549376 9.894912-3.127296 2.77504-6.674432 4.159488-10.642432 4.159488-5.747712 0-10.481664-1.60768-14.201856-4.829184-3.713024-3.222528-6.736896-7.190528-9.066496-11.897856-2.321408-4.702208-4.063232-9.737216-5.206016-15.095808-1.135616-5.353472-2.002944-10.112-2.589696-14.272512l-1.793024-1.785856c-0.096256-0.101376-0.375808-0.019456-0.811008 0.223232-0.44544 0.247808-0.969728 0.548864-1.575936 0.892928-0.586752 0.351232-1.154048 0.741376-1.702912 1.19296-0.54272 0.446464-0.969728 0.869376-1.263616 1.263616a25.802752 25.802752 0 0 0-3.567616 5.276672 111.715328 111.715328 0 0 0-2.82624 5.946368 342.1696 342.1696 0 0 1-2.755584 6.106112 42.007552 42.007552 0 0 1-3.195904 5.723136c-0.592896 0.989184-1.729536 2.74944-3.414016 5.269504a4904.58112 4904.58112 0 0 0-5.352448 8.0384 1272.51456 1272.51456 0 0 1-5.353472 7.949312c-1.690624 2.476032-2.870272 4.166656-3.565568 5.054464-0.995328 0.796672-1.88928 1.319936-2.679808 1.562624-0.804864 0.241664-1.73568 0.369664-2.82624 0.369664-2.679808 0-4.63872-0.989184-5.875712-2.966528-1.23904-1.984512-2.086912-4.320256-2.533376-6.992896a40.988672 40.988672 0 0 1-0.516096-8.179712c0.1024-2.779136 0.1536-5.005312 0.1536-6.695936zM504.001536 368.434176c0-0.790528-0.0512-2.404352-0.147456-4.829184-0.1024-2.43712-0.152576-4.59264-0.152576-6.475776v-2.820096c0-5.946368 0.300032-12.389376 0.893952-19.33824a242.586624 242.586624 0 0 1 2.74944-21.041152 246.00576 246.00576 0 0 1 4.53632-20.737024c1.785856-6.744064 3.866624-12.88704 6.252544-18.438144 0.192512-0.695296 0.681984-1.217536 1.486848-1.562624a10.579968 10.579968 0 0 1 2.51904-0.746496c0.893952-0.147456 1.736704-0.198656 2.527232-0.147456a29.184 29.184 0 0 0 1.486848 0.070656c0 3.47648-0.141312 6.373376-0.446464 8.701952a47.29856 47.29856 0 0 1-1.334272 6.769664 557.541376 557.541376 0 0 1-2.010112 7.133184c-0.739328 2.576384-1.55648 5.850112-2.456576 9.812992-1.383424 6.245376-2.226176 12.36992-2.526208 18.367488a375.289856 375.289856 0 0 0-0.446464 18.362368c1.288192 0 2.429952-0.54272 3.419136-1.63328 0.995328-1.09056 1.88928-2.379776 2.679808-3.872768a55.59296 55.59296 0 0 0 2.15552-4.53632c0.64512-1.531904 1.26976-2.74944 1.86368-3.636224 0.98304-1.68448 2.520064-4.191232 4.600832-7.51616a145.84832 145.84832 0 0 1 6.92224-10.03008c2.526208-3.36896 5.122048-6.296576 7.801856-8.771584 2.673664-2.476032 5.059584-3.720192 7.139328-3.720192 0.695296 0 1.461248 0.274432 2.304 0.817152a12.161024 12.161024 0 0 1 2.30912 1.939456 15.179776 15.179776 0 0 1 1.780736 2.296832c0.497664 0.796672 0.75264 1.442816 0.75264 1.934336v42.528768c0 1.480704 0.268288 3.024896 0.809984 4.606976a40.833024 40.833024 0 0 0 1.932288 4.682752 89.653248 89.653248 0 0 0 2.304 4.465664c0.791552 1.440768 1.435648 2.69824 1.933312 3.7888 0 0.108544 0.024576 0.249856 0.075776 0.446464 0.0512 0.197632 0.070656 0.345088 0.070656 0.446464 0 1.294336-0.274432 2.405376-0.809984 3.34848-0.555008 0.945152-1.518592 1.410048-2.90304 1.410048-1.486848 0-2.82624-0.516096-4.0192-1.55648-1.186816-1.046528-2.226176-2.33472-3.113984-3.872768a24.941568 24.941568 0 0 1-2.162688-4.760576 57.980928 57.980928 0 0 1-1.263616-4.236288c-0.299008-0.989184-0.644096-2.354176-1.040384-4.083712a912.715776 912.715776 0 0 0-1.186816-5.13536 102.948864 102.948864 0 0 1-0.969728-4.465664c-0.249856-1.283072-0.369664-2.0224-0.369664-2.221056-0.103424-0.994304-0.103424-2.729984 0-5.21216 0.095232-2.475008 0.247808-5.07904 0.44544-7.80288 0.198656-2.724864 0.370688-5.326848 0.51712-7.801856 0.146432-2.476032 0.217088-4.217856 0.217088-5.20704-1.779712 0-3.31776 0.421888-4.600832 1.263616-1.288192 0.842752-2.455552 1.934336-3.494912 3.26656a29.5168 29.5168 0 0 0-2.82112 4.396032 379.616256 379.616256 0 0 1-2.603008 4.753408c-0.600064 0.995328-1.524736 2.527232-2.74944 4.606976-1.250304 2.07872-2.603008 4.465664-4.096 7.138304a1225.445376 1225.445376 0 0 1-4.753408 8.479744 859.16672 859.16672 0 0 0-4.758528 8.472576c-1.690624 2.87744-3.03104 5.276672-4.0192 7.216128-0.989184 1.932288-1.907712 3.494912-2.750464 4.681728-0.841728 1.18784-1.703936 2.055168-2.603008 2.604032-0.893952 0.535552-2.079744 0.861184-3.567616 0.969728h-0.44544c-0.103424 0-0.198656-0.057344-0.300032-0.152576-0.299008-0.2048-0.912384-0.74752-1.86368-1.639424-0.929792-0.891904-1.503232-1.4848-1.700864-1.778688zM569.12896 357.429248c0-2.2784 0.421888-5.282816 1.263616-8.99584 0.842752-3.720192 1.978368-7.712768 3.426304-11.968512 1.42336-4.262912 3.165184-8.549376 5.193728-12.862464 2.034688-4.320256 4.236288-8.230912 6.622208-11.752448 2.374656-3.516416 4.881408-6.393856 7.502848-8.620032 2.635776-2.226176 5.282816-3.355648 7.962624-3.355648 1.084416 0 2.348032 0.2304 3.78368 0.681984 1.447936 0.446464 2.162688 1.40288 2.162688 2.890752v42.529792c0 1.396736 0.54272 2.731008 1.63328 4.0192 1.084416 1.283072 2.429952 2.424832 4.013056 3.419136a24.518656 24.518656 0 0 0 4.989952 2.3808c1.73568 0.592896 3.18976 0.88576 4.38272 0.88576 1.984512 0 3.910656-0.325632 5.793792-0.96256a17.83808 17.83808 0 0 1 5.798912-0.96256c1.391616 0 2.207744 0.49152 2.456576 1.485824 0.247808 0.989184 0.376832 1.978368 0.376832 2.973696 0 0.197632-0.024576 0.644096-0.0768 1.333248-0.0512 0.69632-0.075776 1.14176-0.075776 1.340416-1.288192 1.390592-2.482176 2.456576-3.572736 3.195904a11.849728 11.849728 0 0 1-3.414016 1.63328 14.989312 14.989312 0 0 1-3.643392 0.600064 120.17664 120.17664 0 0 1-4.242432 0.070656c-5.052416 0-9.244672-1.065984-12.562432-3.190784-3.323904-2.130944-6.571008-5.282816-9.736192-9.442304-0.198656 0-0.497664-0.032768-0.893952-0.0768a8.049664 8.049664 0 0 0-0.893952-0.08192c-2.18112 0-3.885056 1.027072-5.128192 3.05664a77.258752 77.258752 0 0 0-3.643392 6.761472 37.516288 37.516288 0 0 1-4.160512 6.769664c-1.595392 2.029568-3.821568 3.049472-6.692864 3.049472-1.99168 0-3.547136-0.625664-4.68992-1.86368-1.135616-1.236992-2.010112-2.731008-2.603008-4.45952a22.171648 22.171648 0 0 1-1.11104-5.506048 64.637952 64.637952 0 0 1-0.222208-4.97664z m24.6784-30.930944c-2.768896 0.790528-5.103616 2.423808-6.986752 4.905984-1.888256 2.475008-3.375104 5.276672-4.45952 8.40192a53.159936 53.159936 0 0 0-2.379776 9.673728c-0.49152 3.31776-0.739328 6.162432-0.739328 8.543232 1.779712 0 3.540992-1.257472 5.276672-3.790848 1.728512-2.532352 3.291136-5.453824 4.682752-8.772608a79.179776 79.179776 0 0 0 3.419136-9.894912c0.892928-3.26656 1.339392-5.690368 1.339392-7.28576 0-0.197632-0.024576-0.484352-0.069632-0.886784a6.834176 6.834176 0 0 1-0.082944-0.893952z" fill="#231815" p-id="12095"></path><path d="M651.203584 383.44704c0-0.287744-0.019456-0.842752-0.070656-1.63328a45.41952 45.41952 0 0 1-0.070656-2.527232c0-0.995328-0.024576-1.91488-0.075776-2.74944a34.688 34.688 0 0 1-0.0768-1.71008 68.7104 68.7104 0 0 1 1.117184-12.345344 480.32768 480.32768 0 0 1 2.38592-12.109824c0.841728-4.0192 1.63328-8.0384 2.372608-12.046336a66.127872 66.127872 0 0 0 1.117184-12.122112c-0.396288 0-1.212416-0.203776-2.450432-0.600064-1.236992-0.396288-2.060288-0.49152-2.456576-0.292864-2.086912 0.790528-4.465664 2.176-7.139328 4.165632a116.79232 116.79232 0 0 0-8.027136 6.53312 300.877824 300.877824 0 0 0-7.514112 6.916096 430.507008 430.507008 0 0 0-5.424128 5.276672c-0.095232 0.108544-0.54272 0.159744-1.339392 0.159744h-1.340416c-0.98816 0-2.002944-0.126976-3.043328-0.376832-1.040384-0.247808-1.562624-1.01376-1.562624-2.304 0-1.983488 0.918528-4.114432 2.74944-6.398976 1.831936-2.277376 4.186112-4.581376 7.063552-6.908928 2.870272-2.328576 6.022144-4.658176 9.442304-6.992896 3.426304-2.328576 6.692864-4.554752 9.812992-6.692864a169.46688 169.46688 0 0 0 8.332288-6.016c2.423808-1.883136 4.089856-3.57376 4.97664-5.059584 0.592896-0.989184 1.160192-2.896896 1.709056-5.72928a296.654848 296.654848 0 0 0 1.71008-9.736192 338.512896 338.512896 0 0 1 2.085888-11.592704c0.791552-4.071424 1.729536-7.758848 2.82112-11.082752 1.09056-3.31776 2.404352-6.0672 3.935232-8.255488 1.544192-2.176 3.356672-3.26656 5.43744-3.26656 1.977344 0 3.08736 0.592896 3.342336 1.779712 0.249856 1.199104 0.376832 2.635776 0.376832 4.313088a25.92768 25.92768 0 0 1-0.899072 6.839296 166.770688 166.770688 0 0 1-1.927168 6.546432 140.971008 140.971008 0 0 0-1.932288 6.540288 25.43616 25.43616 0 0 0-0.900096 6.692864c0 0.497664-0.019456 1.11616-0.070656 1.86368-0.0512 0.739328 0 1.461248 0.147456 2.15552 0.152576 0.690176 0.420864 1.257472 0.823296 1.703936 0.388096 0.453632 1.040384 0.67072 1.932288 0.67072 2.0736 0 3.93728-0.415744 5.57056-1.257472a75.298816 75.298816 0 0 0 4.988928-2.832384 54.095872 54.095872 0 0 1 5.193728-2.82624c1.793024-0.842752 3.872768-1.257472 6.245376-1.257472 0 2.576384-0.612352 4.727808-1.856512 6.462464-1.236992 1.741824-2.845696 3.247104-4.829184 4.530176a52.04992 52.04992 0 0 1-6.469632 3.572736 136.108032 136.108032 0 0 0-6.84032 3.426304c-2.226176 1.186816-4.236288 2.527232-6.022144 4.0192a12.51328 12.51328 0 0 0-3.859456 5.494784c-1.793024 4.962304-3.350528 10.285056-4.68992 15.987712s-2.456576 11.470848-3.350528 17.321984a243.398656 243.398656 0 0 0-2.010112 17.468416c-0.434176 5.798912-0.662528 11.234304-0.662528 16.282624-0.198656 1.09056-0.772096 1.68448-1.71008 1.793024-0.945152 0.095232-1.81248 0.140288-2.603008 0.140288-0.791552 0-1.659904-0.044032-2.603008-0.140288-0.937984-0.108544-1.557504-0.70144-1.862656-1.793024zM704.44544 246.050816l3.720192-5.206016c1.779712 0 3.119104 0.772096 4.005888 2.310144 0.899072 1.529856 1.345536 3.049472 1.345536 4.529152 0 0.198656-0.031744 0.548864-0.075776 1.046528-0.0512 0.49152-0.0768 0.79872-0.0768 0.893952-0.095232 0.88576-0.318464 2.526208-0.67072 4.89984-0.344064 2.38592-0.719872 4.860928-1.108992 7.445504-0.402432 2.571264-0.765952 5.02784-1.123328 7.350272-0.344064 2.33472-0.567296 3.948544-0.662528 4.842496-0.103424 0.089088-0.249856 0.089088-0.446464 0-0.198656-0.1024-0.345088-0.0512-0.446464 0.146432l-1.040384 3.713024c-0.095232 0.203776-0.720896 0.249856-1.856512 0.146432-1.14176-0.095232-1.86368-0.146432-2.15552-0.146432-1.39776 0.1024-2.277376-0.516096-2.685952-1.850368-0.396288-1.345536-0.49152-2.61632-0.287744-3.802112l3.565568-26.318848zM725.403648 363.374592c0-2.475008 0.57344-4.708352 1.716224-6.692864a23.575552 23.575552 0 0 1 4.313088-5.429248 65.26976 65.26976 0 0 1 5.582848-4.682752 76.048384 76.048384 0 0 0 5.568512-4.612096c1.73568-1.575936 3.171328-3.286016 4.313088-5.123072 1.14176-1.830912 1.71008-3.943424 1.71008-6.316032v-0.900096c0-0.49664-0.0512-0.784384-0.152576-0.892928-1.883136-1.575936-3.592192-3.018752-5.123072-4.306944-1.544192-1.29536-2.852864-2.622464-3.943424-4.0192a16.429056 16.429056 0 0 1-2.532352-4.530176c-0.592896-1.63328-0.886784-3.592192-0.886784-5.875712 0-2.476032 0.562176-5.103616 1.709056-7.878656a30.442496 30.442496 0 0 1 4.614144-7.733248c1.926144-2.38592 4.108288-4.332544 6.539264-5.875712 2.423808-1.538048 4.975616-2.304 7.655424-2.304 2.28352 0 3.592192 0.497664 3.943424 1.486848 0.344064 0.994304 0.52224 2.576384 0.52224 4.752384 0 1.097728-0.128 2.584576-0.375808 4.466688a46.446592 46.446592 0 0 1-1.117184 5.65248c-0.49152 1.88928-1.211392 3.52256-2.15552 4.905984-0.937984 1.385472-2.054144 2.079744-3.34336 2.079744-0.592896 0-1.217536-0.172032-1.861632-0.516096a11.585536 11.585536 0 0 1-1.71008-1.117184 14.056448 14.056448 0 0 1-1.257472-1.11616c-0.356352-0.351232-0.57344-0.51712-0.67584-0.51712 0 0.293888-0.128 0.758784-0.370688 1.40288-0.241664 0.65024-0.49152 1.296384-0.739328 1.94048a14.403584 14.403584 0 0 0-0.592896 1.86368c-0.152576 0.586752-0.128 1.038336 0.070656 1.333248 0.695296 1.385472 1.702912 2.750464 3.049472 4.089856a32.8192 32.8192 0 0 0 4.45952 3.720192 31.8976 31.8976 0 0 0 5.128192 2.895872c1.787904 0.79872 3.426304 1.340416 4.913152 1.639424 0 0.49152-0.031744 1.334272-0.08192 2.520064a100.847616 100.847616 0 0 0-0.0768 3.720192c0 1.288192 0.032768 2.526208 0.0768 3.712 0.0512 1.199104 0.08192 2.041856 0.08192 2.533376 0 0.299008 0.1024 1.040384 0.31232 2.233344 0.223232 1.19296 0.434176 2.481152 0.65024 3.866624 0.217088 1.383424 0.429056 2.69824 0.64512 3.93728 0.217088 1.236992 0.318464 2.010112 0.318464 2.30912 0 2.673664-0.791552 5.480448-2.38592 8.402944a35.775488 35.775488 0 0 1-5.972992 8.025088c-2.392064 2.432-4.969472 4.434944-7.757824 6.023168-2.788352 1.58208-5.378048 2.379776-7.758848 2.379776-1.888256 0-3.833856-0.128-5.824512-0.375808-1.983488-0.247808-3.80928-0.765952-5.44256-1.55648a10.886144 10.886144 0 0 1-4.108288-3.421184c-1.096704-1.485824-1.645568-3.515392-1.645568-6.099968z m10.565632-1.186816c0 1.289216 0.562176 2.500608 1.709056 3.643392 1.13664 1.135616 2.399232 1.71008 3.790848 1.71008 2.079744 0 4.0192-0.67072 5.798912-2.010112 1.780736-1.334272 3.299328-2.998272 4.53632-4.983808a26.404864 26.404864 0 0 0 2.896896-6.391808c0.695296-2.277376 1.040384-4.306944 1.040384-6.0928v-1.040384c0-0.79872-0.070656-1.690624-0.217088-2.679808-0.152576-0.989184-0.720896-1.492992-1.717248-1.492992-1.383424 0-3.075072 0.772096-5.046272 2.316288-1.99168 1.53088-3.949568 3.342336-5.875712 5.423104-1.933312 2.079744-3.57376 4.217856-4.913152 6.393856-1.332224 2.188288-2.002944 3.9168-2.002944 5.204992zM468.463616 618.242048c0-6.839296 1.11104-13.398016 3.350528-19.695616a103.26016 103.26016 0 0 1 8.543232-18.221056 160.251904 160.251904 0 0 1 11.457536-16.792576 1257.12384 1257.12384 0 0 1 12.192768-15.47264c0.287744-0.395264 0.734208-0.867328 1.327104-1.416192a44.034048 44.034048 0 0 0 1.793024-1.703936 11.81184 11.81184 0 0 0 1.557504-1.939456c0.44544-0.681984 0.668672-1.383424 0.668672-2.0736v-26.476544c0-0.192512-0.472064-0.734208-1.410048-1.63328-0.943104-0.893952-1.665024-1.538048-2.162688-1.934336h-0.886784c-2.576384 0-5.00224 0.57344-7.28576 1.71008-2.28352 1.14176-4.53632 2.576384-6.76352 4.312064a101.505024 101.505024 0 0 0-6.551552 5.576704 96.755712 96.755712 0 0 1-6.53312 5.576704 36.78208 36.78208 0 0 1-6.986752 4.312064 17.836032 17.836032 0 0 1-7.662592 1.703936c-1.589248 0-3.024896-0.36352-4.313088-1.11104a10.541056 10.541056 0 0 1-3.272704-2.895872 14.00832 14.00832 0 0 1-2.079744-4.01408 13.99808 13.99808 0 0 1-0.746496-4.45952h-3.567616a100.338688 100.338688 0 0 0-7.062528 8.4736c-2.137088 2.87744-4.440064 5.480448-6.916096 7.809024a33.697792 33.697792 0 0 1-8.255488 5.723136c-3.018752 1.492992-6.71232 2.226176-11.076608 2.226176v-4.829184c0-0.842752 0.128-1.410048 0.369664-1.71008 0.256-0.299008 0.720896-0.618496 1.416192-0.96256 0.69632-0.351232 1.787904-1.219584 3.273728-2.603008l38.95808-38.95808c0.497664-0.502784 1.040384-1.236992 1.640448-2.238464a48.720896 48.720896 0 0 1 1.932288-2.967552c0.688128-0.989184 1.45408-1.86368 2.296832-2.603008 0.847872-0.746496 1.81248-1.117184 2.90304-1.117184 1.5872 0 2.609152 0.427008 3.05664 1.276928 0.434176 0.85504 0.662528 1.978368 0.662528 3.381248 0 2.507776-0.44544 4.931584-1.339392 7.279616a140.391424 140.391424 0 0 1-2.896896 7.02464 104.61184 104.61184 0 0 0-2.90304 7.20384 22.87104 22.87104 0 0 0-1.333248 7.739392h4.753408c2.379776-1.58208 5.179392-3.52256 8.40192-5.799936a148.8128 148.8128 0 0 1 10.113024-6.539264c3.521536-2.079744 7.062528-3.847168 10.628096-5.282816 3.57376-1.42848 6.897664-2.149376 9.965568-2.149376 2.77504 0 4.881408 0.54272 6.316032 1.627136a10.001408 10.001408 0 0 1 3.203072 4.013056c0.69632 1.575936 1.161216 3.337216 1.411072 5.269504 0.241664 1.94048 0.49152 3.695616 0.739328 5.276672 0.247808 1.58208 0.644096 2.922496 1.19296 4.01408 0.54272 1.084416 1.511424 1.63328 2.896896 1.63328 0.203776 0 0.52224-0.0512 0.969728-0.152576 0.446464-0.096256 0.720896-0.198656 0.816128-0.293888l17.552384-17.52576h5.34528v5.198848l-24.68352 26.586112c-1.385472 1.480704-2.328576 3.31776-2.820096 5.499904a36.85888 36.85888 0 0 0-0.893952 6.685696 60.603392 60.603392 0 0 0 0.070656 6.744064c0.146432 2.233344 0.178176 4.089856 0.075776 5.576704-0.49152 6.239232-1.019904 12.505088-1.562624 18.789376a179.36384 179.36384 0 0 1-2.603008 18.648064 120.40704 120.40704 0 0 1-4.97664 18.036736c-2.130944 5.895168-4.988928 11.515904-8.55552 16.862208a175.986688 175.986688 0 0 1-8.102912 5.13024c-2.423808 1.429504-5.326848 2.1504-8.689664 2.1504-3.279872 0-5.978112-0.720896-8.1152-2.157568-2.130944-1.434624-3.859456-3.26656-5.206016-5.49376-1.328128-2.239488-2.2784-4.765696-2.82112-7.59296-0.540672-2.819072-0.815104-5.568512-0.815104-8.254464z m8.920064 0.606208c0 1.282048 0.197632 2.717696 0.592896 4.306944a17.27488 17.27488 0 0 0 1.861632 4.53632c0.842752 1.42848 1.86368 2.64704 3.049472 3.636224 1.18784 1.000448 2.622464 1.485824 4.306944 1.485824 2.980864 0 5.60128-1.32608 7.885824-4.013056 2.2784-2.673664 4.261888-6.0928 5.946368-10.258432 1.68448-4.160512 3.100672-8.772608 4.236288-13.826048a176.022528 176.022528 0 0 0 2.679808-14.64832c0.644096-4.703232 1.11104-8.951808 1.410048-12.709888 0.300032-3.771392 0.446464-6.449152 0.446464-8.0384 0-0.592896-0.031744-1.455104-0.0768-2.597888-0.044032-1.14176-0.095232-2.28352-0.140288-3.419136-0.057344-1.135616-0.1024-2.182144-0.152576-3.119104a36.82816 36.82816 0 0 1-0.0768-1.717248l-1.779712-1.785856c-0.197632 0.20992-0.52224 0.497664-0.969728 0.891904-0.446464 0.402432-0.720896 0.69632-0.823296 0.893952-3.068928 4.45952-6.265856 9.02144-9.582592 13.68576a148.537344 148.537344 0 0 0-9.142272 14.49472 95.556608 95.556608 0 0 0-6.916096 15.542272c-1.8432 5.353472-2.755584 10.904576-2.755584 16.659456z" fill="#231815" p-id="12096"></path><path d="M542.65856 529.321984c0-1.186816 0.126976-3.144704 0.375808-5.869568 0.247808-2.731008 0.644096-5.774336 1.186816-9.142272a185.911296 185.911296 0 0 1 2.010112-10.413056c0.790528-3.572736 1.71008-6.839296 2.74944-9.818112 1.040384-2.967552 2.233344-5.424128 3.567616-7.36256 1.345536-1.927168 2.80064-2.890752 4.396032-2.890752 0.690176 0 1.155072 0.0512 1.40288 0.146432 0.249856 0.096256 0.67072 0.446464 1.26976 1.040384 0.791552 0.695296 1.652736 1.544192 2.59584 2.527232 0.945152 0.989184 1.570816 1.589248 1.86368 1.793024 0 0.089088 0.090112 0.140288 0.300032 0.140288h1.040384c0.197632 0 0.292864-0.0512 0.292864-0.140288l15.911936-10.565632c0.095232-0.095232 0.567296-0.172032 1.410048-0.223232 0.847872-0.0512 1.461248-0.070656 1.86368-0.070656 2.768896 0 5.00224 0.64512 6.685696 1.927168 1.68448 1.288192 2.978816 2.934784 3.872768 4.913152 0.886784 1.977344 1.480704 4.185088 1.779712 6.608896 0.300032 2.438144 0.446464 4.740096 0.446464 6.92224 0 5.551104-0.644096 11.324416-1.934336 17.329152-1.288192 5.997568-3.375104 11.470848-6.245376 16.421888-2.87744 4.964352-6.616064 9.054208-11.22304 12.269568-4.612096 3.21536-10.182656 4.829184-16.734208 4.829184-3.16416 0-5.946368-0.52224-8.326144-1.562624-2.374656-1.040384-4.339712-2.469888-5.875712-4.306944-1.531904-1.830912-2.69312-3.987456-3.489792-6.469632-0.797696-2.477056-1.19296-5.149696-1.19296-8.03328z m12.345344-6.392832c0 1.68448 0.0512 3.477504 0.146432 5.358592 0.1024 1.88928 0.427008 3.637248 0.969728 5.270528 0.54272 1.645568 1.435648 2.972672 2.679808 4.0192 1.230848 1.040384 2.992128 1.562624 5.276672 1.562624 4.753408 0 8.650752-1.339392 11.669504-4.013056 3.023872-2.686976 5.378048-5.972992 7.068672-9.889792a47.460352 47.460352 0 0 0 3.412992-12.491776c0.592896-4.415488 0.900096-8.402944 0.900096-11.97568v-1.780736c0-0.98816-0.032768-2.010112-0.0768-3.049472a58.846208 58.846208 0 0 1-0.070656-2.895872v-1.934336c-0.299008-0.989184-0.75264-1.562624-1.339392-1.709056-0.600064-0.154624-1.29536-0.223232-2.086912-0.223232-3.176448 0-6.443008 1.108992-9.818112 3.342336-3.36896 2.233344-6.444032 5.035008-9.212928 8.3968a48.551936 48.551936 0 0 0-6.839296 11.005952c-1.780736 3.970048-2.679808 7.63904-2.679808 11.006976zM601.987072 541.96736v-1.932288c0-0.893952-0.019456-1.86368-0.070656-2.90304a59.230208 59.230208 0 0 1-0.075776-2.896896v-2.086912c0-1.186816 0.126976-3.298304 0.369664-6.316032 0.247808-3.016704 0.644096-6.391808 1.19296-10.112 0.54272-3.725312 1.24416-7.584768 2.084864-11.598848 0.842752-4.013056 1.851392-7.706624 3.044352-11.075584 1.19296-3.36896 2.551808-6.119424 4.088832-8.256512 1.538048-2.130944 3.248128-3.195904 5.13024-3.195904 2.476032 0 3.720192 1.186816 3.720192 3.572736 0 3.560448-0.478208 7.114752-1.435648 10.62912-0.96256 3.52256-1.983488 7.037952-3.094528 10.559488a228.967424 228.967424 0 0 0-3.106816 10.706944 42.57792 42.57792 0 0 0-1.429504 10.929152v5.046272c0.090112 0.3072 0.370688 0.676864 0.811008 1.123328 0.44544 0.44544 0.765952 0.668672 0.96256 0.668672 0.695296 0 1.640448-0.427008 2.832384-1.268736 1.186816-0.836608 2.029568-1.608704 2.520064-2.296832 0.605184-0.995328 1.518592-2.551808 2.755584-4.68992a533.891072 533.891072 0 0 1 3.866624-6.540288 282.519552 282.519552 0 0 0 3.642368-6.245376c1.09056-1.934336 1.779712-3.196928 2.079744-3.790848 0.796672-1.485824 1.613824-3.622912 2.449408-6.391808a81.097728 81.097728 0 0 1 3.05664-8.332288c1.186816-2.77504 2.545664-5.174272 4.083712-7.209984 1.543168-2.029568 3.45088-3.049472 5.728256-3.049472 1.58208 0 2.604032 1.14176 3.049472 3.419136 0.446464 2.28352 0.714752 5.180416 0.816128 8.696832 0.096256 3.521536 0.293888 7.41376 0.594944 11.681792a49.148928 49.148928 0 0 0 2.455552 12.338176c1.340416 3.96288 3.438592 7.503872 6.316032 10.62912 2.878464 3.120128 6.941696 5.326848 12.191744 6.617088 0.198656 0 0.74752 0.075776 1.63328 0.223232 0.893952 0.146432 1.845248 0.325632 2.832384 0.52224 0.989184 0.197632 1.907712 0.396288 2.750464 0.592896 0.841728 0.197632 1.358848 0.351232 1.562624 0.446464 0.287744 0.1024 0.663552 0.376832 1.11104 0.817152 0.446464 0.44032 0.669696 0.765952 0.669696 0.969728 0 1.391616-0.293888 2.429952-0.886784 3.126272a5.763072 5.763072 0 0 1-2.162688 1.549312 8.02816 8.02816 0 0 1-2.750464 0.592896c-0.995328 0.057344-1.927168 0.083968-2.820096 0.083968-4.173824 0-7.810048-0.695296-10.935296-2.086912-3.120128-1.378304-5.851136-3.151872-8.173568-5.276672-2.328576-2.130944-4.339712-4.434944-6.029312-6.92224a138.887168 138.887168 0 0 1-4.460544-6.909952c-1.288192-2.1248-2.429952-3.88608-3.419136-5.282816-0.989184-1.378304-1.939456-2.079744-2.820096-2.079744-0.893952 0-1.888256 0.79872-2.978816 2.38592-1.09056 1.58208-2.304 3.567616-3.643392 5.946368-1.334272 2.3808-2.77504 4.932608-4.313088 7.663616a65.007616 65.007616 0 0 1-5.052416 7.64928c-1.83808 2.379776-3.764224 4.364288-5.793792 5.952512-2.040832 1.58208-4.192256 2.372608-6.443008 2.372608-0.976896 0-1.934336-0.274432-2.865152-0.809984-0.93184-0.548864-1.785856-1.26976-2.56512-2.162688a14.133248 14.133248 0 0 1-1.977344-2.896896c-0.53248-1.038336-0.902144-2.008064-1.099776-2.894848z" fill="#231815" p-id="12097"></path><path d="M684.520448 478.173184c1.68448 0 3.016704 0.516096 4.005888 1.55648 0.995328 1.040384 1.984512 2.405376 2.980864 4.096-0.096256 0.592896-0.223232 1.73568-0.370688 3.412992a382.47936 382.47936 0 0 1-0.52224 5.359616 311.390208 311.390208 0 0 0-0.51712 5.353472c-0.152576 1.68448-0.273408 2.820096-0.369664 3.412992v7.445504a194.432 194.432 0 0 0 7.133184-12.128256c2.277376-4.204544 5.149696-8.077312 8.626176-11.598848 3.470336-3.515392 7.878656-6.411264 13.232128-8.695808 5.352448-2.277376 12.440576-3.421184 21.264384-3.421184 0 3.272704-0.503808 5.603328-1.486848 6.992896-0.994304 1.385472-2.251776 2.354176-3.789824 2.896896-1.538048 0.548864-3.298304 0.892928-5.282816 1.040384-1.978368 0.146432-4.005888 0.67584-6.0928 1.562624-2.972672 0.396288-6.029312 2.182144-9.14944 5.353472-3.120128 3.176448-6.073344 7.035904-8.848384 11.598848-2.76992 4.554752-5.225472 9.44128-7.356416 14.649344-2.130944 5.198848-3.688448 9.977856-4.68992 14.342144-0.293888 1.19296-0.44032 2.883584-0.44032 5.059584 0 1.589248-0.1024 3.228672-0.300032 4.907008-0.197632 1.68448-0.57344 3.247104-1.11616 4.682752s-1.314816 2.603008-2.296832 3.49696c-1.000448 0.899072-2.33472 1.339392-4.0192 1.339392-1.186816 0-2.176-0.119808-2.978816-0.369664-0.791552-0.247808-1.186816-1.314816-1.186816-3.195904v-65.281024c0-1.589248 0.325632-2.628608 0.969728-3.120128 0.643072-0.500736 1.504256-0.748544 2.601984-0.748544zM398.792704 726.206464c0-2.079744 0.293888-4.40832 0.893952-6.991872a124.366848 124.366848 0 0 1 2.084864-7.810048 278.073344 278.073344 0 0 1 2.374656-7.502848 213.608448 213.608448 0 0 0 1.939456-6.099968c0.287744-1.289216 0.663552-3.151872 1.11104-5.576704a212.736 212.736 0 0 1 1.63328-7.95648 482.912256 482.912256 0 0 1 2.085888-8.848384c0.741376-3.018752 1.563648-5.774336 2.456576-8.250368 0.88064-2.481152 1.850368-4.51072 2.890752-6.098944 1.046528-1.5872 2.105344-2.379776 3.203072-2.379776 1.787904 0 3.36896 1.26976 4.760576 3.795968 1.378304 2.520064 2.794496 5.723136 4.22912 9.58976 1.442816 3.866624 2.90304 8.13568 4.389888 12.785664a116.528128 116.528128 0 0 0 5.21216 13.462528c1.978368 4.313088 4.236288 8.173568 6.756352 11.598848 2.532352 3.412992 5.530624 5.818368 9.001984 7.209984 0.886784 0.39424 2.2016 0.618496 3.93728 0.668672 1.73568 0.0512 3.693568 0.070656 5.869568 0.070656h6.769664c2.328576 0 4.491264 0.152576 6.469632 0.44032 2.086912 0.306176 3.790848 0.555008 5.13024 0.75264 1.345536 0.198656 2.060288 0.396288 2.15552 0.592896 0 0.101376-0.0512 0.375808-0.146432 0.823296-0.1024 0.446464-0.247808 0.937984-0.446464 1.486848-0.197632 0.54272-0.41472 1.11616-0.663552 1.703936-0.254976 0.592896-0.434176 1.040384-0.52224 1.339392-0.197632 0.197632-0.503808 0.548864-0.893952 1.040384-0.39424 0.503808-0.70144 0.746496-0.899072 0.746496h-26.464256c-4.063232 0-7.783424-1.288192-11.152384-3.866624-3.36896-2.576384-6.462464-5.842944-9.295872-9.812992-2.82112-3.968-5.372928-8.332288-7.657472-13.084672a261.883904 261.883904 0 0 1-6.0928-13.679616c-0.899072 0.989184-1.63328 2.801664-2.233344 5.42208a148.399104 148.399104 0 0 0-1.703936 8.921088 715.44832 715.44832 0 0 0-1.645568 10.411008c-0.54272 3.617792-1.23904 6.935552-2.0736 9.965568-0.856064 3.018752-1.88928 5.492736-3.120128 7.433216-1.24416 1.932288-2.806784 2.896896-4.68992 2.896896-2.28352 0-3.7888-0.293888-4.535296-0.886784-0.7424-0.592896-1.119232-2.028544-1.119232-4.312064z" fill="#231815" p-id="12098"></path><path d="M480.579584 714.307584c0-2.2784 0.420864-5.282816 1.263616-8.99584 0.847872-3.720192 1.977344-7.707648 3.419136-11.968512 1.434624-4.261888 3.176448-8.549376 5.206016-12.862464 2.029568-4.320256 4.236288-8.230912 6.623232-11.752448 2.372608-3.516416 4.87424-6.393856 7.502848-8.620032 2.627584-2.226176 5.282816-3.34848 7.95648-3.34848 1.09056 0 2.353152 0.223232 3.7888 0.668672 1.435648 0.453632 2.15552 1.416192 2.15552 2.896896v42.529792c0 1.396736 0.548864 2.731008 1.63328 4.0192 1.09056 1.288192 2.432 2.424832 4.020224 3.419136a23.9616 23.9616 0 0 0 4.98176 2.3808c1.728512 0.592896 3.195904 0.892928 4.38272 0.892928 1.984512 0 3.918848-0.325632 5.799936-0.969728a17.75616 17.75616 0 0 1 5.798912-0.96256c1.385472 0 2.207744 0.49152 2.456576 1.485824 0.242688 0.989184 0.370688 1.978368 0.370688 2.967552 0 0.203776-0.026624 0.65024-0.0768 1.339392-0.0512 0.70144-0.0768 1.14176-0.0768 1.340416-1.288192 1.390592-2.475008 2.456576-3.565568 3.203072a12.30336 12.30336 0 0 1-3.419136 1.63328c-1.181696 0.345088-2.399232 0.54272-3.637248 0.592896-1.24416 0.0512-2.654208 0.070656-4.242432 0.070656-5.052416 0-9.244672-1.05984-12.568576-3.190784-3.31776-2.130944-6.564864-5.282816-9.742336-9.442304-0.197632 0-0.484352-0.032768-0.886784-0.0768a7.943168 7.943168 0 0 0-0.88576-0.08192c-2.182144 0-3.899392 1.027072-5.136384 3.05664-1.24416 2.034688-2.450432 4.287488-3.643392 6.761472-1.19296 2.482176-2.578432 4.740096-4.165632 6.769664-1.58208 2.029568-3.815424 3.049472-6.687744 3.049472-1.983488 0-3.546112-0.625664-4.682752-1.86368-1.148928-1.238016-2.010112-2.731008-2.603008-4.45952a22.409216 22.409216 0 0 1-1.11616-5.506048 64.1792 64.1792 0 0 1-0.223232-4.97664z m24.6784-30.930944c-2.76992 0.790528-5.10464 2.423808-6.980608 4.913152-1.88928 2.475008-3.375104 5.269504-4.45952 8.395776a53.016576 53.016576 0 0 0-2.386944 9.672704c-0.49664 3.31776-0.739328 6.162432-0.739328 8.543232 1.779712 0 3.540992-1.257472 5.276672-3.790848 1.728512-2.532352 3.299328-5.453824 4.68992-8.772608a82.100224 82.100224 0 0 0 3.419136-9.894912c0.893952-3.26656 1.340416-5.690368 1.340416-7.279616 0-0.203776-0.032768-0.49152-0.083968-0.893952a9.418752 9.418752 0 0 1-0.075776-0.892928z" fill="#231815" p-id="12099"></path><path d="M545.114112 728.280064c0-0.293888 0.019456-1.11616 0.0768-2.443264a82.54464 82.54464 0 0 0 0.070656-2.609152c1.09056-3.859456 2.28352-8.027136 3.572736-12.486656 1.288192-4.45952 2.603008-9.003008 3.943424-13.60896a675.1488 675.1488 0 0 1 4.165632-13.826048 624.7168 624.7168 0 0 1 4.236288-13.161472 16.50688 16.50688 0 0 1 1.856512-3.720192c0.74752-1.09056 1.856512-1.63328 3.337216-1.63328 1.396736 0 2.731008 0.325632 4.025344 0.969728 1.288192 0.644096 2.61632 0.970752 4.013056 0.970752 1.492992 0 2.763776-0.3584 3.854336-1.046528 1.071104-0.690176 2.443264-1.040384 4.108288-1.040384 2.845696 0 4.72064 0.867328 5.658624 2.603008 0.93184 1.728512 1.391616 3.88608 1.391616 6.462464 0 1.492992-0.159744 2.95424-0.51712 4.389888-0.33792 1.434624-0.708608 2.850816-1.097728 4.236288-0.396288 1.383424-0.758784 2.77504-1.103872 4.159488a17.88928 17.88928 0 0 0-0.509952 4.313088c2.15552 0 3.725312-0.714752 4.72064-2.15552a28.532736 28.532736 0 0 0 2.603008-4.682752 29.014016 29.014016 0 0 1 2.597888-4.68992c0.994304-1.429504 2.532352-2.1504 4.612096-2.1504 1.084416 0 2.578432 1.168384 4.45952 3.49696s3.892224 5.008384 6.029312 8.027136c2.1248 3.030016 4.236288 5.997568 6.316032 8.926208 2.0736 2.921472 3.866624 4.98176 5.353472 6.1696 4.45952 3.769344 9.467904 6.616064 15.019008 8.549376 5.551104 1.939456 11.152384 3.195904 16.799744 3.789824 0 0.203776 0.024576 0.497664 0.069632 0.893952 0.057344 0.401408 0.0768 0.70144 0.0768 0.892928 0 0.796672-0.0768 1.518592-0.217088 2.162688-0.147456 0.64512-0.720896 1.11104-1.71008 1.404928-0.497664 0-1.511424 0.031744-3.049472 0.08192a146.25792 146.25792 0 0 1-3.049472 0.070656c-5.052416 0-9.766912-0.714752-14.125056-2.157568a49.316864 49.316864 0 0 1-12.192768-5.951488c-3.771392-2.520064-7.209984-5.51936-10.33728-8.989696a85.316608 85.316608 0 0 1-8.554496-11.29984h-3.414016c-0.695296 1.883136-1.665024 4.677632-2.902016 8.3968a140.04736 140.04736 0 0 1-4.306944 11.229184c-1.627136 3.764224-3.407872 7.062528-5.30944 9.888768-1.918976 2.82112-3.897344 4.236288-5.951488 4.236288-1.86368 0-3.241984-0.516096-4.133888-1.55648-0.893952-1.046528-1.486848-2.33472-1.780736-3.866624-0.299008-1.538048-0.427008-3.209216-0.369664-4.98176 0.0512-1.787904 0.070656-3.421184 0.070656-4.905984 0-2.3808 0.178176-4.791296 0.52224-7.216128 0.33792-2.423808 0.740352-4.855808 1.179648-7.28576 0.446464-2.429952 0.874496-4.855808 1.26976-7.28576s0.592896-4.886528 0.592896-7.36256v-1.785856c-3.067904 1.097728-5.57568 3.202048-7.508992 6.3232-1.926144 3.125248-3.565568 6.71744-4.907008 10.78272a118.79936 118.79936 0 0 0-3.412992 12.785664c-0.951296 4.45952-1.958912 8.52992-3.049472 12.192768-1.097728 3.668992-2.361344 6.718464-3.795968 9.142272-1.435648 2.429952-3.350528 3.643392-5.723136 3.643392-1.097728 0-1.888256-0.223232-2.38592-0.663552a3.618816 3.618816 0 0 1-1.040384-1.63328c-0.198656-0.65024-0.268288-1.416192-0.217088-2.301952 0.052224-0.907264 0.070656-1.800192 0.070656-2.69312zM650.540032 708.361216c-0.396288-0.396288-0.758784-1.26976-1.11104-2.603008a42.826752 42.826752 0 0 1-0.899072-4.682752 52.269056 52.269056 0 0 1-0.44032-5.72928c-0.044032-2.029568 0.026624-3.943424 0.223232-5.723136 0-4.165632 0.318464-8.153088 0.969728-11.968512 0.644096-3.815424 1.50528-7.209984 2.603008-10.1888a30.686208 30.686208 0 0 1 3.483648-8.772608c1.646592-2.768896 3.547136-5.206016 5.72928-7.292928 2.182144-2.079744 4.56192-3.713024 7.146496-4.89984 2.576384-1.186816 5.198848-1.779712 7.878656-1.779712 3.36896 0 5.889024 0.612352 7.579648 1.850368 1.68448 1.24416 2.526208 3.598336 2.526208 7.068672 0 2.972672-0.611328 5.774336-1.850368 8.402944a48.375808 48.375808 0 0 1-4.612096 7.72608 80.821248 80.821248 0 0 1-6.029312 7.361536 92.483584 92.483584 0 0 0-6.017024 7.286784 45.0304 45.0304 0 0 0-4.612096 7.661568c-1.236992 2.622464-1.856512 5.42208-1.856512 8.402944 0 1.084416 0.274432 2.475008 0.816128 4.159488 0.548864 1.690624 1.416192 3.36896 2.597888 5.052416 1.19296 1.690624 2.678784 3.177472 4.471808 4.465664 1.780736 1.296384 3.91168 2.029568 6.393856 2.226176l19.918848 1.639424c0 3.068928-1.236992 5.404672-3.713024 6.986752-2.481152 1.589248-5.257216 2.476032-8.326144 2.673664-3.176448 0.197632-6.098944-0.019456-8.772608-0.663552-2.678784-0.644096-5.301248-1.728512-7.885824-3.272704-2.571264-1.538048-5.180416-3.572736-7.801856-6.099968-2.630656-2.518016-5.43232-5.619712-8.411136-9.28768z m22.310912-52.942848c-1.390592 0-2.724864 0.453632-4.013056 1.340416-1.29536 0.892928-2.481152 2.085888-3.572736 3.565568a25.48224 25.48224 0 0 0-2.82112 4.989952 28.879872 28.879872 0 0 0-1.785856 5.568512c0 0.203776-0.1024 0.823296-0.299008 1.86368-0.198656 1.040384-0.396288 2.1504-0.592896 3.34336a48.28672 48.28672 0 0 0-0.446464 3.26656c-0.1024 1.000448-0.147456 1.594368-0.147456 1.785856 0.989184-0.785408 2.399232-2.182144 4.237312-4.160512a83.670016 83.670016 0 0 0 5.429248-6.539264 75.998208 75.998208 0 0 0 4.682752-6.991872c1.339392-2.277376 2.009088-4.06528 2.009088-5.353472v-0.739328c-0.108544-0.198656-0.375808-0.524288-0.823296-0.970752-0.446464-0.44544-0.772096-0.719872-0.969728-0.817152h-0.293888a0.64512 0.64512 0 0 1-0.299008-0.075776 0.653312 0.653312 0 0 0-0.293888-0.075776zM716.120064 673.123328c0-0.402432 0.019456-1.16736 0.0768-2.315264 0.0512-1.13664 0.070656-1.856512 0.070656-2.1504a340.609024 340.609024 0 0 1 6.622208-12.269568 184.276992 184.276992 0 0 0 6.76352-13.231104 103.015424 103.015424 0 0 0 5.206016-13.756416c1.385472-4.657152 2.0736-9.270272 2.0736-13.832192h-2.966528l-22.905856 19.478528c-0.095232 0.103424-0.44544 0.1792-1.040384 0.223232-0.592896 0.057344-1.038336 0.0768-1.333248 0.0768-1.492992 0-2.679808-0.217088-3.572736-0.67072-0.893952-0.446464-1.340416-1.511424-1.340416-3.18976 0-0.1024 0.026624-0.376832 0.083968-0.823296 0.037888-0.446464 0.069632-0.765952 0.069632-0.969728 0.791552-0.893952 2.010112-2.176 3.643392-3.859456s3.52256-3.52256 5.64736-5.506048a235.72992 235.72992 0 0 1 6.839296-6.099968c2.432-2.079744 4.810752-3.943424 7.139328-5.576704 2.328576-1.63328 4.56192-2.998272 6.692864-4.089856 2.130944-1.084416 3.93728-1.63328 5.429248-1.63328 2.079744 0 3.790848 0.320512 5.13024 0.964608 1.334272 0.651264 2.551808 2.20672 3.643392 4.68992 0 0.49664 0.044032 1.485824 0.147456 2.978816 0.095232 1.486848 0.152576 2.870272 0.152576 4.159488v1.639424c0 1.575936-0.548864 4.231168-1.640448 7.949312-1.09056 3.720192-2.533376 7.95648-4.313088 12.716032a490.838016 490.838016 0 0 1-5.793792 14.717952c-2.085888 5.059584-4.114432 9.66656-6.105088 13.826048-1.978368 4.166656-3.790848 7.612416-5.424128 10.33728-1.63328 2.729984-2.80064 4.094976-3.49696 4.094976-1.186816 0-2.15552-0.247808-2.895872-0.75264a4.779008 4.779008 0 0 1-1.71008-1.926144 7.50592 7.50592 0 0 1-0.746496-2.604032 26.309632 26.309632 0 0 1-0.146432-2.59584z m17.698816 51.14368c0-1.68448 0.690176-2.865152 2.0736-3.567616 1.39776-0.695296 2.77504-1.040384 4.166656-1.040384 1.390592 0 2.507776 0.249856 3.34848 0.74752 0.842752 0.49152 1.263616 1.529856 1.263616 3.125248 0 1.779712-0.65024 3.113984-1.939456 4.007936-1.283072 0.892928-2.768896 1.345536-4.4544 1.345536-2.977792 0.001024-4.458496-1.544192-4.458496-4.61824z" p-id="12100"></path></svg>
