<svg t="1696963101376" class="icon" viewBox="0 0 1024 1024" version="1.1" xmlns="http://www.w3.org/2000/svg" p-id="10960" width="200" height="200"><path d="M469.312 810.688H512v42.688h-42.688z" fill="#FCD17D" p-id="10961"></path><path d="M512 853.312h42.688V896H512z" fill="#F8BD76" p-id="10962"></path><path d="M469.312 896H512v42.688h-42.688zM469.312 938.688H512v42.688h-42.688z" fill="#FCD17D" p-id="10963"></path><path d="M512 896h42.688v42.688H512zM512 938.688h42.688v42.688H512zM512 810.688h42.688v42.688H512z" fill="#F8BD76" p-id="10964"></path><path d="M469.312 853.312H512V896h-42.688z" fill="#FCD17D" p-id="10965"></path><path d="M298.688 170.688h42.688v42.688h-42.688z" fill="#E95175" p-id="10966"></path><path d="M341.312 170.688H384v42.688h-42.688zM384 170.688h42.688v42.688H384zM426.688 170.688h42.688v42.688h-42.688z" fill="#E95175" p-id="10967"></path><path d="M469.312 170.688H512v42.688h-42.688zM256 213.312h42.688V256H256z" fill="#E95175" p-id="10968"></path><path d="M298.688 213.312h42.688V256h-42.688z" fill="#EA68A2" p-id="10969"></path><path d="M341.312 213.312H384V256h-42.688zM384 213.312h42.688V256H384zM426.688 213.312h42.688V256h-42.688z" fill="#E95175" p-id="10970"></path><path d="M469.312 213.312H512V256h-42.688zM256 256h42.688v42.688H256zM298.688 256h42.688v42.688h-42.688z" fill="#E95175" p-id="10971"></path><path d="M341.312 256H384v42.688h-42.688zM384 256h42.688v42.688H384zM426.688 256h42.688v42.688h-42.688z" fill="#E95175" p-id="10972"></path><path d="M469.312 256H512v42.688h-42.688zM256 298.688h42.688v42.688H256zM298.688 298.688h42.688v42.688h-42.688z" fill="#E95175" p-id="10973"></path><path d="M341.312 298.688H384v42.688h-42.688zM384 298.688h42.688v42.688H384zM426.688 298.688h42.688v42.688h-42.688z" fill="#E95175" p-id="10974"></path><path d="M469.312 298.688H512v42.688h-42.688zM512 170.688h42.688v42.688H512z" fill="#E95175" p-id="10975"></path><path d="M512 213.312h42.688V256H512z" fill="#EA68A2" p-id="10976"></path><path d="M512 256h42.688v42.688H512zM512 298.688h42.688v42.688H512zM554.688 170.688h42.688v42.688h-42.688z" fill="#E95175" p-id="10977"></path><path d="M554.688 213.312h42.688V256h-42.688zM554.688 256h42.688v42.688h-42.688zM554.688 298.688h42.688v42.688h-42.688zM597.312 170.688H640v42.624h-42.688z" fill="#E95175" p-id="10978"></path><path d="M597.312 213.312H640V256h-42.688zM597.312 256H640v42.688h-42.688zM597.312 298.688H640v42.688h-42.688zM640 213.312h42.688V256H640zM640 256h42.688v42.688H640zM682.688 213.312h42.624V256h-42.624z" fill="#E95175" p-id="10979"></path><path d="M640 170.688h42.688v42.624H640z" fill="#EA68A2" p-id="10980"></path><path d="M682.688 170.688h42.688v42.624h-42.688zM384 42.688h42.688v42.688H384zM426.688 42.688h42.688v42.688h-42.688z" fill="#E95175" p-id="10981"></path><path d="M469.312 42.688H512v42.688h-42.688zM341.312 85.312H384V128h-42.688zM384 85.312h42.688V128H384z" fill="#E95175" p-id="10982"></path><path d="M426.688 85.312h42.688V128h-42.688z" fill="#E95175" p-id="10983"></path><path d="M469.312 85.312H512V128h-42.688zM512 42.688h42.688v42.688H512z" fill="#E95175" p-id="10984"></path><path d="M512 85.312h42.688V128H512zM554.688 42.688h42.688v42.688h-42.688z" fill="#E95175" p-id="10985"></path><path d="M554.688 85.312h42.688V128h-42.688z" fill="#EA68A2" p-id="10986"></path><path d="M597.312 42.688H640v42.688h-42.688z" fill="#E95175" p-id="10987"></path><path d="M597.312 85.312H640V128h-42.688zM640 85.312h42.688V128H640zM682.688 298.688h42.688v42.688h-42.688zM725.312 256H768v42.688h-42.688z" fill="#E95175" p-id="10988"></path><path d="M725.312 298.688H768v42.688h-42.688zM256 384h42.688v42.688H256zM384 384h42.688v42.688H384zM426.688 384h42.688v42.688h-42.688z" fill="#E95175" p-id="10989"></path><path d="M469.312 384H512v42.688h-42.688zM256 426.688h42.688v42.688H256zM426.688 426.688h42.688v42.688h-42.688z" fill="#E95175" p-id="10990"></path><path d="M469.312 426.688H512v42.688h-42.688z" fill="#E95175" p-id="10991"></path><path d="M426.688 469.312h42.688V512h-42.688zM512 384h42.688v42.688H512zM512 426.688h42.688v42.688H512zM426.688 512h42.688v42.688h-42.688zM554.688 384h42.688v42.688h-42.688zM554.688 426.688h42.688v42.688h-42.688z" fill="#E95175" p-id="10992"></path><path d="M597.312 384H640v42.688h-42.688zM597.312 426.688H640v42.688h-42.688z" fill="#E95175" p-id="10993"></path><path d="M597.312 469.312H640V512h-42.688zM597.312 512H640v42.688h-42.688zM426.688 554.688h42.688v42.688h-42.688z" fill="#E95175" p-id="10994"></path><path d="M426.688 597.312h42.688V640h-42.688zM597.312 554.688H640v42.688h-42.688zM298.688 128h42.688v42.688h-42.688z" fill="#E95175" p-id="10995"></path><path d="M341.312 128H384v42.688h-42.688z" fill="#E95175" p-id="10996"></path><path d="M384 128h42.688v42.688H384z" fill="#EA68A2" p-id="10997"></path><path d="M426.688 128h42.688v42.688h-42.688z" fill="#E95175" p-id="10998"></path><path d="M469.312 128H512v42.688h-42.688zM256 341.312h42.688V384H256zM298.688 341.312h42.688V384h-42.688z" fill="#E95175" p-id="10999"></path><path d="M341.312 341.312H384V384h-42.688zM384 341.312h42.688V384H384zM426.688 341.312h42.688V384h-42.688z" fill="#E95175" p-id="11000"></path><path d="M469.312 341.312H512V384h-42.688zM512 128h42.688v42.688H512zM512 341.312h42.688V384H512zM554.688 128h42.688v42.688h-42.688zM554.688 341.312h42.688V384h-42.688z" fill="#E95175" p-id="11001"></path><path d="M597.312 128H640v42.688h-42.688zM597.312 341.312H640V384h-42.688zM640 128h42.688v42.688H640zM640 298.688h42.688v42.688H640z" fill="#E95175" p-id="11002"></path><path d="M640 341.312h42.688V384H640zM640 384h42.688v42.688H640zM682.688 128h42.688v42.688h-42.688zM682.688 256h42.688v42.688h-42.688zM682.688 341.312h42.688V384h-42.688zM725.312 213.312H768V256h-42.688z" fill="#E95175" p-id="11003"></path><path d="M725.312 341.312H768V384h-42.688zM469.312 469.312H512V512h-42.688z" fill="#E95175" p-id="11004"></path><path d="M682.688 426.688h42.688v42.688h-42.688z" fill="#FDD554" p-id="11005"></path><path d="M682.688 469.312h42.688V512h-42.688z" fill="#FDD554" p-id="11006"></path><path d="M725.312 426.688H768v42.688h-42.688z" fill="#FDD554" p-id="11007"></path><path d="M725.312 469.312H768V512h-42.688z" fill="#FFF459" p-id="11008"></path><path d="M682.688 512h42.688v42.688h-42.688z" fill="#FDD554" p-id="11009"></path><path d="M725.312 512H768v42.688h-42.688z" fill="#FFF459" p-id="11010"></path><path d="M682.688 554.688h42.688v42.688h-42.688z" fill="#FDD554" p-id="11011"></path><path d="M682.688 597.312h42.688V640h-42.688z" fill="#FDD554" p-id="11012"></path><path d="M725.312 554.688H768v42.688h-42.688z" fill="#FFF459" p-id="11013"></path><path d="M725.312 597.312H768V640h-42.688zM682.688 640h42.688v42.688h-42.688z" fill="#FFF459" p-id="11014"></path><path d="M725.312 640H768v42.688h-42.688zM682.688 682.688h42.688v42.688h-42.688z" fill="#FFF459" p-id="11015"></path><path d="M725.312 682.688H768v42.688h-42.688z" fill="#FFF459" p-id="11016"></path><path d="M682.688 725.312h42.688V768h-42.688z" fill="#FFF459" p-id="11017"></path><path d="M725.312 725.312H768V768h-42.688z" fill="#FFF459" p-id="11018"></path><path d="M341.312 426.688H384v42.688h-42.688z" fill="#FDD554" p-id="11019"></path><path d="M298.688 469.312h42.688V512h-42.688z" fill="#FDD554" p-id="11020"></path><path d="M298.688 512h42.688v42.688h-42.688zM298.688 554.688h42.688v42.688h-42.688z" fill="#FFF459" p-id="11021"></path><path d="M298.688 597.312h42.688V640h-42.688z" fill="#FFF459" p-id="11022"></path><path d="M512 554.688h42.688v42.688H512z" fill="#FDD554" p-id="11023"></path><path d="M512 597.312h42.688V640H512z" fill="#FDD554" p-id="11024"></path><path d="M256 640h42.688v42.688H256zM298.688 640h42.688v42.688h-42.688z" fill="#FFF459" p-id="11025"></path><path d="M341.312 640H384v42.688h-42.688z" fill="#FFF459" p-id="11026"></path><path d="M384 640h42.688v42.688H384zM469.312 640H512v42.688h-42.688z" fill="#FDD554" p-id="11027"></path><path d="M512 640h42.688v42.688H512zM554.688 640h42.688v42.688h-42.688z" fill="#FFF459" p-id="11028"></path><path d="M597.312 640H640v42.688h-42.688z" fill="#FDD554" p-id="11029"></path><path d="M256 682.688h42.688v42.688H256zM298.688 682.688h42.688v42.688h-42.688z" fill="#FFF459" p-id="11030"></path><path d="M341.312 682.688H384v42.688h-42.688zM384 682.688h42.688v42.688H384z" fill="#FFF459" p-id="11031"></path><path d="M426.688 682.688h42.688v42.688h-42.688z" fill="#FDD554" p-id="11032"></path><path d="M469.312 682.688H512v42.688h-42.688zM512 682.688h42.688v42.688H512zM554.688 682.688h42.688v42.688h-42.688z" fill="#FFF459" p-id="11033"></path><path d="M597.312 682.688H640v42.688h-42.688zM341.312 725.312H384V768h-42.688zM384 725.312h42.688V768H384zM426.688 725.312h42.688V768h-42.688z" fill="#FFF459" p-id="11034"></path><path d="M469.312 725.312H512V768h-42.688zM512 725.312h42.688V768H512zM554.688 725.312h42.688V768h-42.688z" fill="#FFF459" p-id="11035"></path><path d="M597.312 725.312H640V768h-42.688z" fill="#FFF459" p-id="11036"></path><path d="M640 640h42.688v42.688H640z" fill="#FDD554" p-id="11037"></path><path d="M640 682.688h42.688v42.688H640z" fill="#FFF459" p-id="11038"></path><path d="M640 725.312h42.688V768H640z" fill="#FFF459" p-id="11039"></path><path d="M341.312 469.312H384V512h-42.688zM256 512h42.688v42.688H256zM341.312 512H384v42.688h-42.688zM512 512h42.688v42.688H512z" fill="#FDD554" p-id="11040"></path><path d="M256 554.688h42.688v42.688H256z" fill="#FFF459" p-id="11041"></path><path d="M341.312 554.688H384v42.688h-42.688z" fill="#FDD554" p-id="11042"></path><path d="M256 597.312h42.688V640H256z" fill="#FFF459" p-id="11043"></path><path d="M341.312 597.312H384V640h-42.688zM554.688 597.312h42.688V640h-42.688z" fill="#FDD554" p-id="11044"></path><path d="M256 725.312h42.688V768H256zM298.688 725.312h42.688V768h-42.688z" fill="#FFF459" p-id="11045"></path><path d="M256 170.688h42.688v42.688H256zM213.312 213.312H256V256h-42.688zM213.312 256H256v42.688h-42.688zM213.312 298.688H256v42.688h-42.688zM725.312 170.688H768v42.624h-42.688zM341.312 42.688H384v42.688h-42.688z" p-id="11046"></path><path d="M298.688 85.312h42.688V128h-42.688zM640 42.688h42.688v42.688H640zM682.688 85.312h42.688V128h-42.688zM768 213.312h42.688V256H768zM768 256h42.688v42.688H768zM768 298.688h42.688v42.688H768zM682.688 384h42.688v42.688h-42.688z" p-id="11047"></path><path d="M725.312 384H768v42.688h-42.688zM768 384h42.688v42.688H768zM768 426.688h42.688v42.688H768z" p-id="11048"></path><path d="M768 469.312h42.688V512H768zM768 512h42.688v42.688H768zM768 554.688h42.688v42.688H768z" p-id="11049"></path><path d="M768 597.312h42.688V640H768zM768 640h42.688v42.688H768zM768 682.688h42.688v42.688H768zM725.312 768H768v42.688h-42.688z" p-id="11050"></path><path d="M768 725.312h42.688V768H768zM213.312 384H256v42.688h-42.688zM298.688 384h42.688v42.688h-42.688z" p-id="11051"></path><path d="M341.312 384H384v42.688h-42.688zM213.312 426.688H256v42.688h-42.688zM298.688 426.688h42.688v42.688h-42.688zM384 426.688h42.688v42.688H384z" p-id="11052"></path><path d="M213.312 469.312H256V512h-42.688zM384 469.312h42.688V512H384zM512 469.312h42.688V512H512zM213.312 512H256v42.688h-42.688zM384 512h42.688v42.688H384zM554.688 512h42.688v42.688h-42.688zM213.312 554.688H256v42.688h-42.688zM384 554.688h42.688v42.688H384z" p-id="11053"></path><path d="M213.312 597.312H256V640h-42.688zM213.312 640H256v42.688h-42.688zM426.688 640h42.688v42.688h-42.688zM597.312 597.312H640V640h-42.688zM213.312 682.688H256v42.688h-42.688zM384 768h42.688v42.688H384zM426.688 768h42.688v42.688h-42.688z" p-id="11054"></path><path d="M469.312 768H512v42.688h-42.688zM512 768h42.688v42.688H512zM426.688 810.688h42.688v42.688h-42.688zM256 768h42.688v42.688H256zM298.688 768h42.688v42.688h-42.688zM597.312 768H640v42.688h-42.688zM554.688 810.688h42.688v42.688h-42.688z" p-id="11055"></path><path d="M554.688 853.312h42.688V896h-42.688zM426.688 896h42.688v42.688h-42.688zM426.688 938.688h42.688v42.688h-42.688zM554.688 896h42.688v42.688h-42.688zM554.688 938.688h42.688v42.688h-42.688zM554.688 768h42.688v42.688h-42.688zM682.688 768h42.688v42.688h-42.688zM426.688 853.312h42.688V896h-42.688zM384 0h42.688v42.688H384zM426.688 0h42.688v42.688h-42.688z" p-id="11056"></path><path d="M469.312 0H512v42.688h-42.688zM256 128h42.688v42.688H256zM213.312 341.312H256V384h-42.688zM512 0h42.688v42.688H512zM554.688 0h42.688v42.688h-42.688z" p-id="11057"></path><path d="M597.312 0H640v42.688h-42.688zM640 426.688h42.688v42.688H640z" p-id="11058"></path><path d="M640 469.312h42.688V512H640zM640 512h42.688v42.688H640zM640 554.688h42.688v42.688H640z" p-id="11059"></path><path d="M640 597.312h42.688V640H640zM725.312 128H768v42.688h-42.688zM768 341.312h42.688V384H768zM640 768h42.688v42.688H640zM469.312 981.312H512V1024h-42.688zM512 981.312h42.688V1024H512zM256 469.312h42.688V512H256zM469.312 512H512v42.688h-42.688zM554.688 469.312h42.688V512h-42.688zM469.312 554.688H512v42.688h-42.688zM384 597.312h42.688V640H384z" p-id="11060"></path><path d="M469.312 597.312H512V640h-42.688zM554.688 554.688h42.688v42.688h-42.688zM213.312 725.312H256V768h-42.688zM341.312 768H384v42.688h-42.688z" p-id="11061"></path></svg>
